<?xml version="1.0" encoding="utf-8"?>
<!-- Generator: Adobe Illustrator 27.9.0, SVG Export Plug-In . SVG Version: 6.00 Build 0)  -->
<svg version="1.1" id="Layer_1" xmlns="http://www.w3.org/2000/svg" xmlns:xlink="http://www.w3.org/1999/xlink" x="0px" y="0px"
	 viewBox="41 84 1918 381" xml:space="preserve">
<g>
	<path fill="#FFFFFF" d="M222.4,253.4c-8-5.1-16.9-9.2-26.6-12.3c-9.7-3.1-19.4-5.6-29.1-7.7c-9.7-2.1-18.6-4.1-26.7-6
		c-8.1-1.9-14.6-4.4-19.5-7.5c-4.9-3.1-7.4-7.2-7.4-12.5c0-4.1,1.2-7.8,3.8-11c2.5-3.2,6.6-5.8,12.3-7.7c5.7-1.9,13.2-2.9,22.6-2.9
		c10.5,0,21.4,1.5,32.5,4.6c11.2,3.1,22.5,7.7,33.9,13.9l20.9-50.4c-11.9-6.9-25.4-12-40.6-15.6c-15.2-3.5-30.7-5.3-46.4-5.3
		c-23.5,0-43.2,3.6-58.9,10.6c-15.8,7.1-27.6,16.4-35.5,28.1c-7.9,11.6-11.8,24.7-11.8,39.1c0,12.8,2.5,23.4,7.5,31.7
		c5,8.3,11.5,15.1,19.5,20.2c8,5.1,16.8,9.3,26.5,12.5c9.7,3.2,19.4,5.8,29.1,7.9c9.7,2,18.6,4.1,26.6,6.2c8,2.1,14.5,4.7,19.5,7.9
		s7.5,7.5,7.5,13c0,3.9-1.3,7.2-3.9,10.1c-2.6,2.9-6.8,5.1-12.5,6.9c-5.7,1.7-13.2,2.6-22.6,2.6c-13.9,0-27.9-2.2-42-6.7
		c-14.1-4.5-26.4-10.1-37.2-17l-22.3,50c11.4,7.8,26.2,14.1,44.4,19s37,7.4,56.7,7.4c23.8,0,43.4-3.5,59.1-10.6
		c15.6-7.1,27.4-16.5,35.3-28.3c7.9-11.8,11.8-24.6,11.8-38.5c0-12.6-2.5-23-7.4-31.4C236.8,265.3,230.4,258.6,222.4,253.4
		L222.4,253.4z"/>
	<path fill="#FFFFFF" d="M426.4,209.6c-16.6-13.8-39.9-20.7-70.1-20.7c-14.6,0-29.3,1.9-44,5.6c-14.7,3.8-27.4,9.1-37.9,15.9l21.9,44.2
		c6.4-5,14.2-9,23.3-11.8c9.1-2.9,18.2-4.3,27.1-4.3c13.7,0,23.7,2.8,30,8.4c5.7,5.1,8.7,12.2,9.2,21.1h-36.8
		c-19.2,0-34.8,2.2-46.9,6.7c-12.1,4.5-21.1,10.9-26.9,19.2c-5.8,8.3-8.7,18.2-8.7,29.6c0,10.7,2.7,20.5,8,29.1
		c5.4,8.7,13.2,15.5,23.5,20.6s22.8,7.5,37.7,7.5c16.2,0,29.3-3.2,39.2-9.8c6.7-4.4,11.9-10.4,15.6-17.7v24.4h60.6V274.5
		C451.3,245.1,443,223.4,426.4,209.6L426.4,209.6z M373.3,334.3c-5.8,3.5-12.3,5.3-19.4,5.3c-7.5,0-13.5-1.7-17.8-5.1
		c-4.3-3.4-6.5-8-6.5-13.7s2.1-10.3,6.3-13.7c4.2-3.4,11.6-5.1,22.1-5.1h28.1V318C383.4,325.3,379.1,330.8,373.3,334.3L373.3,334.3z
		"/>
	<path fill="#FFFFFF" d="M772.7,197.6c-11.3-5.8-24.2-8.7-38.5-8.7c-17.4,0-32.7,4.3-46.1,12.9c-7.1,4.5-13.2,10.1-18.3,16.4
		c-4.3-6.7-9.6-12.1-15.9-16.4c-12.7-8.6-27.3-12.9-44-12.9c-14.6,0-27.9,3.4-39.7,10.1c-5.9,3.3-11.1,7.5-15.8,12.4V192h-62v185.7
		h65.1v-92.2c0-9.6,1.4-17.4,4.3-23.5c2.8-6.1,6.7-10.6,11.7-13.5c4.9-3,10.6-4.5,17-4.5c8.9,0,15.8,3,20.7,9.1
		c4.9,6.1,7.4,15.7,7.4,29v95.6h65.1v-92.2c0-9.6,1.4-17.4,4.1-23.5c2.7-6.1,6.6-10.6,11.7-13.5c5-3,10.6-4.5,16.8-4.5
		c8.7,0,15.5,3,20.5,9.1c5,6.1,7.5,15.7,7.5,29v181.7h65.1V271.4c0-19.2-3.2-34.8-9.8-46.9C793,212.4,784,203.4,772.7,197.6
		L772.7,197.6z"/>
	<path fill="#FFFFFF" d="M1013.2,200.5c-13.8-7.8-29.2-11.6-46.1-11.6c-15.8,0-29.2,3.4-40.4,10.3c-4.2,2.6-7.9,5.8-11.3,9.4V85.1
		h-65.1v292.5h62v-18.8c3.9,4.6,8.2,8.5,13.2,11.6c11.1,6.9,25,10.3,41.6,10.3s32.2-3.9,46.1-11.8c13.8-7.9,24.8-19,32.9-33.2
		c8.1-14.3,12.2-31.4,12.2-51.2s-4.1-36.6-12.2-50.9C1038,219.3,1027.1,208.3,1013.2,200.5L1013.2,200.5z M987.2,308.6
		c-3.5,6.7-8.2,11.8-14,15.2s-12.4,5.1-19.7,5.1s-13.9-1.7-19.7-5.1c-5.8-3.4-10.5-8.5-14-15.2c-3.5-6.7-5.3-14.8-5.3-24.1
		s1.8-17.3,5.3-23.8c3.5-6.5,8.2-11.5,14-14.9s12.4-5.1,19.7-5.1s13.9,1.7,19.7,5.1c5.8,3.4,10.5,8.4,14,14.9
		c3.5,6.5,5.3,14.5,5.3,23.8S990.7,301.9,987.2,308.6z"/>
	<path fill="#FFFFFF" d="M1233.5,209.6c-16.6-13.8-39.9-20.7-70.1-20.7c-14.6,0-29.3,1.9-44,5.6c-14.7,3.8-27.3,9.1-37.8,15.9
		l21.9,44.2c6.4-5,14.2-9,23.3-11.8c9.1-2.9,18.2-4.3,27.1-4.3c13.7,0,23.7,2.8,30,8.4c5.7,5.1,8.7,12.2,9.2,21.1h-36.8
		c-19.2,0-34.8,2.2-46.9,6.7c-12.1,4.5-21.1,10.9-26.9,19.2c-5.8,8.3-8.7,18.2-8.7,29.6c0,10.7,2.7,20.5,8.1,29.1
		c5.4,8.7,13.2,15.5,23.5,20.6s22.8,7.5,37.7,7.5c16.2,0,29.3-3.2,39.2-9.8c6.7-4.4,11.8-10.4,15.6-17.7v24.4h60.6V274.5
		C1258.4,245.1,1250.1,223.4,1233.5,209.6L1233.5,209.6z M1180.4,334.3c-5.8,3.5-12.3,5.3-19.4,5.3c-7.5,0-13.5-1.7-17.8-5.1
		c-4.3-3.4-6.5-8-6.5-13.7s2.1-10.3,6.3-13.7c4.2-3.4,11.6-5.1,22.1-5.1h28.1V318C1190.5,325.3,1186.2,330.8,1180.4,334.3
		L1180.4,334.3z"/>
	<path fill="#FFFFFF" d="M1452.9,293.9c-3.9-6.7-9.1-12.1-15.6-16.1c-6.5-4-13.7-7-21.6-9.1c-7.9-2.1-15.7-3.6-23.5-4.6
		c-7.8-1-14.9-2.1-21.4-3.1c-6.5-1-11.7-2.5-15.6-4.5c-3.9-1.9-5.8-4.7-5.8-8.4s2.2-6.7,6.7-9.2c4.4-2.5,12.2-3.8,23.1-3.8
		c8.2,0,16.9,1,26,2.9c9.1,1.9,18.3,5.5,27.4,10.8l19.5-44.2c-9.1-5.2-20.4-9.2-33.7-11.8c-13.4-2.6-26.6-3.9-39.6-3.9
		c-19.4,0-35.9,2.7-49.3,8.1c-13.5,5.4-23.7,12.7-30.7,21.9c-7,9.2-10.4,19.8-10.4,31.7c0,10.5,1.9,19.2,5.8,26
		c3.9,6.9,9.1,12.3,15.6,16.3s13.7,7,21.6,8.9c7.9,1.9,15.7,3.5,23.5,4.6c7.8,1.1,14.9,2.2,21.4,3.1c6.5,0.9,11.8,2.2,15.8,3.9
		c4,1.7,6,4.4,6,8c0,3.9-2.1,7-6.3,9.2c-4.2,2.3-11.8,3.4-22.8,3.4s-22.6-1.5-34.3-4.6c-11.7-3.1-21.8-7.2-30.5-12.5l-19.5,44.5
		c9.1,5.5,21.2,10.1,36.1,13.7c15,3.6,30.3,5.5,46.1,5.5c20.1,0,36.9-2.7,50.5-8.2c13.6-5.5,23.9-12.8,30.8-21.9
		s10.4-19.4,10.4-30.8C1458.8,309.2,1456.8,300.6,1452.9,293.9L1452.9,293.9z"/>
</g>
<linearGradient id="SVGID_1_" gradientUnits="userSpaceOnUse" x1="1490.58" y1="261.405" x2="1730.39" y2="261.405" gradientTransform="matrix(1 0 0 -1 0 524)">
	<stop  offset="0" style="stop-color:#E8C256"/>
	<stop  offset="1" style="stop-color:#D4AF37"/>
</linearGradient>
<polygon fill="url(#SVGID_1_)" points="1730.4,221.5 1730.4,142.7 1596.7,245.7 1490.6,147.8 1490.6,222.5 1590.2,315.4 1490.6,315.4 
	1490.6,382.5 1730.4,382.5 1730.4,315.4 1670.3,315.4 1643.3,290.2 "/>
<path fill="#FFFFFF" d="M1893.1,193.7v89.4c0,10.3-1.6,18.7-4.8,25.2c-3.2,6.5-7.4,11.2-12.7,14.2c-5.3,3-11.1,4.5-17.5,4.5
	c-9.8,0-17.4-3.1-22.8-9.2c-5.4-6.2-8.1-16.5-8.1-30.8v-93.2h-65.1v103.8c0,19.4,3.4,35.5,10.1,48.1c6.7,12.7,16.1,22,28.1,27.9
	c12,5.9,25.5,8.9,40.6,8.9c14.2,0,27.3-3.4,39.4-10.1c5.9-3.3,11.2-7.5,15.8-12.5v19.5h62V193.7L1893.1,193.7L1893.1,193.7z"/>
</svg>
